#define font_width 8
#define font_height 572
static unsigned char font_bits[] = {
   0x00, 0x00, 0x00, 0x00, 0x00, 0x5f, 0x5f, 0x00, 0x03, 0x00, 0x03, 0x00,
   0x22, 0x7f, 0x7f, 0x22, 0x7f, 0x7f, 0x22, 0x00, 0x04, 0x2e, 0x2a, 0x7f,
   0x2a, 0x3a, 0x10, 0x00, 0x63, 0x73, 0x18, 0x0c, 0x67, 0x63, 0x00, 0x36,
   0x7f, 0x49, 0x49, 0x3c, 0x7c, 0x48, 0x00, 0x03, 0x00, 0x3e, 0x7f, 0x41,
   0x00, 0x41, 0x7f, 0x3e, 0x00, 0x08, 0x2a, 0x3e, 0x1c, 0x3e, 0x2a, 0x08,
   0x00, 0x08, 0x08, 0x3e, 0x3e, 0x08, 0x08, 0x00, 0x80, 0xe0, 0x60, 0x00,
   0x08, 0x08, 0x08, 0x08, 0x00, 0x60, 0x60, 0x00, 0xc0, 0xf0, 0x3c, 0x0f,
   0x03, 0x00, 0x3e, 0x7f, 0x41, 0x41, 0x7f, 0x3e, 0x00, 0x00, 0x02, 0x7f,
   0x7f, 0x00, 0x00, 0x00, 0x72, 0x7b, 0x49, 0x49, 0x4f, 0x46, 0x00, 0x22,
   0x63, 0x49, 0x49, 0x7f, 0x36, 0x00, 0x1f, 0x1f, 0x10, 0x78, 0x78, 0x10,
   0x00, 0x2f, 0x6f, 0x49, 0x49, 0x79, 0x31, 0x00, 0x3e, 0x7f, 0x49, 0x49,
   0x79, 0x30, 0x00, 0x01, 0x01, 0x71, 0x79, 0x0f, 0x07, 0x00, 0x36, 0x7f,
   0x49, 0x49, 0x7f, 0x36, 0x00, 0x26, 0x6f, 0x49, 0x49, 0x7f, 0x3e, 0x00,
   0x6c, 0x6c, 0x00, 0x80, 0xec, 0x6c, 0x00, 0x08, 0x1c, 0x36, 0x22, 0x00,
   0x14, 0x14, 0x14, 0x14, 0x00, 0x22, 0x36, 0x1c, 0x08, 0x00, 0x02, 0x03,
   0x51, 0x59, 0x0f, 0x06, 0x00, 0x3e, 0x7f, 0x41, 0x5d, 0x5f, 0x0e, 0x00,
   0x7e, 0x7f, 0x11, 0x11, 0x7f, 0x7e, 0x00, 0x7f, 0x7f, 0x49, 0x49, 0x7f,
   0x36, 0x00, 0x3e, 0x7f, 0x41, 0x41, 0x63, 0x22, 0x00, 0x7f, 0x7f, 0x41,
   0x41, 0x7f, 0x3e, 0x00, 0x7f, 0x7f, 0x49, 0x49, 0x49, 0x41, 0x00, 0x7f,
   0x7f, 0x09, 0x09, 0x09, 0x01, 0x00, 0x3e, 0x7f, 0x41, 0x49, 0x7b, 0x7a,
   0x00, 0x7f, 0x7f, 0x08, 0x08, 0x7f, 0x7f, 0x00, 0x7f, 0x7f, 0x00, 0x40,
   0x40, 0x7f, 0x3f, 0x00, 0x7f, 0x7f, 0x08, 0x1c, 0x77, 0x63, 0x00, 0x7f,
   0x7f, 0x40, 0x40, 0x40, 0x00, 0x7f, 0x7f, 0x06, 0x0c, 0x06, 0x7f, 0x7f,
   0x00, 0x7f, 0x7f, 0x06, 0x1c, 0x30, 0x7f, 0x7f, 0x00, 0x1c, 0x3e, 0x63,
   0x41, 0x63, 0x3e, 0x1c, 0x00, 0x7f, 0x7f, 0x09, 0x09, 0x0f, 0x06, 0x00,
   0x1c, 0x3e, 0x63, 0x41, 0x73, 0x7e, 0x5c, 0x00, 0x7f, 0x7f, 0x09, 0x09,
   0x7f, 0x76, 0x00, 0x26, 0x6f, 0x49, 0x49, 0x7b, 0x32, 0x00, 0x01, 0x01,
   0x7f, 0x7f, 0x01, 0x01, 0x00, 0x3f, 0x7f, 0x40, 0x40, 0x7f, 0x3f, 0x00,
   0x0f, 0x3f, 0x70, 0x70, 0x3f, 0x0f, 0x00, 0x3f, 0x7f, 0x40, 0x7c, 0x40,
   0x7f, 0x3f, 0x00, 0x63, 0x77, 0x1c, 0x08, 0x1c, 0x77, 0x63, 0x00, 0x07,
   0x0f, 0x78, 0x78, 0x0f, 0x07, 0x00, 0x61, 0x71, 0x59, 0x4d, 0x47, 0x43,
   0x00, 0x7f, 0x7f, 0x41, 0x00, 0x03, 0x0f, 0x3c, 0xf0, 0xc0, 0x00, 0x41,
   0x7f, 0x7f, 0x00, 0x04, 0x06, 0x03, 0x06, 0x04, 0x00, 0x80, 0x80, 0x80,
   0x80, 0x80, 0x00, 0x03, 0x07, 0x04, 0x00, 0x20, 0x74, 0x54, 0x7c, 0x78,
   0x00, 0x7f, 0x7f, 0x44, 0x7c, 0x38, 0x00, 0x38, 0x7c, 0x44, 0x44, 0x00,
   0x38, 0x7c, 0x44, 0x7f, 0x7f, 0x00, 0x38, 0x7c, 0x54, 0x5c, 0x18, 0x00,
   0x08, 0x7e, 0x7f, 0x09, 0x00, 0x18, 0xbc, 0xa4, 0xfc, 0x7c, 0x00, 0x7f,
   0x7f, 0x04, 0x7c, 0x78, 0x00, 0x7d, 0x7d, 0x00, 0x80, 0xfd, 0x7d, 0x00,
   0x7f, 0x7f, 0x10, 0x7c, 0x6c, 0x00, 0x7f, 0x7f, 0x00, 0x7c, 0x7c, 0x04,
   0x3c, 0x04, 0x7c, 0x78, 0x00, 0x7c, 0x7c, 0x04, 0x7c, 0x78, 0x00, 0x38,
   0x7c, 0x44, 0x7c, 0x38, 0x00, 0xfc, 0xfc, 0x24, 0x3c, 0x18, 0x00, 0x18,
   0x3c, 0x24, 0xfc, 0xfc, 0x00, 0x7c, 0x78, 0x0c, 0x04, 0x04, 0x00, 0x08,
   0x5c, 0x54, 0x74, 0x20, 0x00, 0x04, 0x3e, 0x7e, 0x44, 0x00, 0x3c, 0x7c,
   0x40, 0x7c, 0x7c, 0x00, 0x0c, 0x3c, 0x60, 0x3c, 0x0c, 0x00, 0x3c, 0x7c,
   0x40, 0x78, 0x40, 0x7c, 0x7c, 0x00, 0x6c, 0x7c, 0x10, 0x7c, 0x6c, 0x00,
   0x1c, 0xbc, 0xa0, 0xfc, 0x7c, 0x00, 0x64, 0x74, 0x54, 0x5c, 0x4c, 0x00,
   0x08, 0x3e, 0x77, 0x41, 0x00, 0x7f, 0x7f, 0x00, 0x41, 0x77, 0x3e, 0x08,
   0x00, 0x10, 0x18, 0x08, 0x10, 0x18, 0x08, 0x00 };
