#define digits_width 8
#define digits_height 12
static unsigned char digits_bits[] = {
   0x3e, 0x7f, 0x41, 0x41, 0x41, 0x7f, 0x3e, 0x00, 0x02, 0x7f, 0x7f, 0x00 };
